<?xml version="1.0" standalone="no"?>
<!DOCTYPE svg PUBLIC "-//W3C//DTD SVG 20010904//EN"
 "http://www.w3.org/TR/2001/REC-SVG-20010904/DTD/svg10.dtd">
<svg version="1.0" xmlns="http://www.w3.org/2000/svg"
 width="88.000000pt" height="88.000000pt" viewBox="0 0 88.000000 88.000000"
 preserveAspectRatio="xMidYMid meet">

<g transform="translate(0.000000,88.000000) scale(0.100000,-0.100000)"
fill="#000000" stroke="none">
<path d="M0 440 l0 -440 440 0 440 0 0 440 0 440 -440 0 -440 0 0 -440z m630
86 c0 -96 -4 -186 -10 -200 -13 -36 -52 -53 -85 -38 -55 25 -50 107 7 119 25
5 28 9 28 48 l0 43 -90 -51 -90 -52 0 -81 c0 -67 -4 -86 -21 -108 -36 -45 -95
-30 -113 30 -8 26 27 74 54 74 18 0 20 10 22 112 l3 112 140 82 c77 45 143 82
148 83 4 1 7 -77 7 -173z"/>
<path d="M478 537 c-72 -42 -88 -56 -88 -75 0 -13 3 -22 8 -20 4 2 43 23 85
47 78 43 92 57 85 85 -2 11 -25 2 -90 -37z"/>
</g>
</svg>
